<?xml version="1.0" encoding="UTF-8"?>
<svg width="121px" height="118px" viewBox="0 0 121 118" xmlns="http://www.w3.org/2000/svg" xmlns:xlink="http://www.w3.org/1999/xlink" version="1.1">
 <!-- Generated by Pixelmator Pro 1.5.1 -->
 <g id="-Copy">
  <path id="Path" d="M112.817 109.092 C109.971 109.381 107.391 109.04 105.092 108.205 102.789 107.37 100.765 106.04 99.029 104.352 97.288 102.665 95.838 100.621 94.681 98.359 93.525 96.095 92.66 93.611 92.099 91.046 91.766 89.526 91.541 87.985 91.425 86.434 91.307 84.869 91.319 83.297 91.461 81.734 91.608 80.177 91.895 78.637 92.352 77.151 92.808 75.665 93.43 74.232 94.242 72.887 94.74 72.061 95.474 71.103 96.354 70.194 97.233 69.287 98.26 68.428 99.344 67.81 100.428 67.191 101.57 66.809 102.677 66.851 103.784 66.894 104.859 67.359 105.813 68.438 106.503 69.216 106.898 70.213 106.927 71.252 106.974 72.268 106.729 73.333 106.319 74.373 105.91 75.413 105.332 76.428 104.708 77.339 104.138 78.167 103.503 78.949 102.808 79.676 101.823 80.694 100.745 81.618 99.589 82.435 98.417 83.264 97.172 83.983 95.869 84.585 94.564 85.186 93.204 85.665 91.818 85.998 90.441 86.334 89.032 86.518 87.616 86.546 86.077 86.578 84.542 86.391 83.055 85.991 81.648 85.609 80.307 85.017 79.077 84.232 71.418 79.341 70.658 69.154 70.962 60.952 71.114 56.892 71.371 52.838 71.65 48.787 71.934 44.619 72.411 40.468 73.08 36.345" fill="none" stroke="#000000" stroke-width="1.962" stroke-opacity="1" stroke-linejoin="round"/>
  <path id="Path-1" d="M106.335 117.276 C109.766 112.674 115.41 112.315 119.49 108.644 115.656 106.955 108.035 103.181 105.659 99.465" fill="none" stroke="#000000" stroke-width="1.962" stroke-opacity="1" stroke-linejoin="round"/>
 </g>
 <defs>
  <text id="string" transform="matrix(0.981627183447664 -0.19080899537654467 0.19080899537654467 0.981627183447664 -1.897562061650527 10.293064505553634)" y="20.0" font-family="BradleyHandITCTT-Bold, Bradley Hand" text-decoration="none" font-size="24" fill="#1f1723" x="1.0">Demo here</text>
 </defs>
 <use id="Demo-here" xlink:href="#string"/>
</svg>
