<svg version="1" xmlns="http://www.w3.org/2000/svg" width="485.333" height="485.333" viewBox="0 0 364.000000 364.000000"><path d="M160 8.5c-17.7 2.5-41 9.4-53.2 15.6L103 26l16.3 32.6c12.1 24.2 16.6 32.4 17.7 32 .8-.2 4.2-1.6 7.6-3 21.8-9.2 46.5-9.7 70.6-1.6 6.4 2.2 11.9 4 12.2 4 .6 0 32.6-62.6 32.6-63.8 0-.5-3-2.3-6.7-4C226.9 10.1 188.2 4.4 160 8.5zM23.7 107.7C12.8 132.3 7 158 7 182.1c0 12.6 3.7 37.3 7.4 50.1 2.2 7.5 9.6 26.1 10.9 27.5.3.2 15.1-6.9 33-15.9l32.5-16.3-2.9-7.1c-10.2-25.3-9.9-54.8.7-78.4 1.6-3.6 2.3-6.4 1.8-6.9-.7-.7-63.4-33.1-64-33.1-.1 0-1.3 2.6-2.7 5.7zM304.8 120l-31.6 15.9 2.9 7c5.6 13.4 7.3 22.9 7.3 40.1-.1 18.5-1.7 25.6-10 44.5-.4.9 62.1 33.5 64.3 33.5 1.7 0 11-24.4 14.1-37 4.5-18.8 5.6-28.7 4.9-47.3-.9-23.3-4.4-40.9-12.3-60.5-4.3-10.7-5.2-12.2-6.7-12.1-.7 0-15.5 7.2-32.9 15.9zM117.6 304.7c-9.2 17.9-16.6 32.6-16.4 32.8.2.2 3.5 1.7 7.3 3.5 11.2 5.1 25.6 9.7 39.8 12.6 11.7 2.4 15.5 2.7 33.7 2.8 23.4.1 31.3-1.1 52.1-7.5 12.5-3.9 25.9-9.3 25.9-10.6 0-.5-31.8-63.3-32.5-64.1-.2-.2-4.5 1.2-9.7 3.1-13 4.9-27.4 7.1-40.7 6.4-12.1-.7-26.4-4-36.2-8.5l-6.6-2.9-16.7 32.4z"/></svg>