<?xml version="1.0" encoding="UTF-8"?>
<svg width="36px" height="29px" viewBox="0 0 36 29" xmlns="http://www.w3.org/2000/svg" xmlns:xlink="http://www.w3.org/1999/xlink" version="1.1">
 <!-- Generated by Pixelmator Pro 1.5.1 -->
 <path id="Path" d="M36 3.429 C34.677 4.015 33.254 4.406 31.753 4.591 33.279 3.685 34.453 2.24 35.004 0.533 33.576 1.37 31.994 1.985 30.311 2.309 28.967 0.884 27.05 -0 24.926 -0 20.846 -0 17.539 3.278 17.539 7.32 17.539 7.892 17.606 8.449 17.732 8.99 11.594 8.682 6.15 5.764 2.508 1.336 1.868 2.418 1.508 3.685 1.508 5.022 1.508 7.563 2.809 9.8 4.793 11.118 3.582 11.081 2.442 10.744 1.444 10.204 L1.444 10.29 C1.444 13.841 3.991 16.798 7.367 17.471 6.75 17.64 6.098 17.734 5.426 17.734 4.949 17.734 4.484 17.68 4.034 17.599 4.974 20.501 7.701 22.622 10.932 22.685 8.404 24.645 5.22 25.819 1.758 25.819 1.16 25.819 0.575 25.785 -0.003 25.715 3.268 27.786 7.152 29 11.321 29 24.906 29 32.338 17.844 32.338 8.166 32.338 7.849 32.328 7.533 32.313 7.221 33.763 6.197 35.013 4.905 36 3.429" fill="#03a9f4" fill-opacity="1" stroke="none"/>
</svg>
